<?xml version="1.0" standalone="no"?>
<!DOCTYPE svg PUBLIC "-//W3C//DTD SVG 20010904//EN"
 "http://www.w3.org/TR/2001/REC-SVG-20010904/DTD/svg10.dtd">
<svg version="1.0" xmlns="http://www.w3.org/2000/svg"
 width="11008.000000pt" height="6144.000000pt" viewBox="0 0 11008.000000 6144.000000"
 preserveAspectRatio="xMidYMid meet">

<g transform="translate(0.000000,6144.000000) scale(0.100000,-0.100000)"
fill="#000000" stroke="none">
<path d="M54795 53460 c-259 -8 -498 -17 -650 -25 -366 -20 -626 -36 -660 -40
-22 -2 -116 -9 -210 -15 -317 -19 -1064 -106 -1640 -190 -148 -22 -304 -45
-345 -51 -241 -34 -749 -131 -1145 -218 -99 -22 -205 -45 -235 -51 -30 -7 -84
-20 -120 -30 -137 -37 -206 -54 -240 -56 -75 -6 -809 -211 -996 -278 -38 -14
-139 -46 -224 -72 -85 -25 -263 -81 -395 -124 -132 -43 -341 -110 -465 -150
-200 -64 -422 -144 -705 -254 -189 -73 -337 -130 -545 -208 -208 -78 -297
-115 -595 -247 -297 -133 -339 -153 -550 -266 -44 -24 -147 -73 -230 -110
-204 -91 -603 -292 -848 -427 -594 -327 -581 -319 -769 -434 -120 -73 -485
-302 -613 -384 -27 -17 -93 -59 -145 -92 -52 -34 -153 -95 -225 -136 -199
-114 -281 -169 -530 -352 -50 -37 -126 -91 -170 -121 -129 -88 -424 -304 -580
-424 -49 -38 -155 -118 -235 -179 -284 -215 -525 -407 -630 -502 -36 -32 -101
-88 -145 -124 -231 -187 -459 -393 -715 -645 -157 -155 -334 -328 -395 -386
-60 -58 -165 -162 -231 -230 -374 -383 -513 -527 -619 -644 -65 -71 -178 -193
-250 -270 -195 -207 -275 -300 -630 -726 -269 -324 -412 -501 -505 -629 -47
-63 -130 -173 -185 -245 -148 -190 -463 -646 -567 -820 -20 -33 -87 -133 -150
-222 -170 -244 -479 -712 -579 -878 -16 -27 -70 -108 -120 -180 -162 -234
-274 -407 -359 -555 -46 -80 -100 -170 -120 -200 -20 -30 -156 -233 -302 -450
-145 -217 -304 -451 -353 -520 -84 -118 -144 -205 -365 -527 -52 -76 -146
-207 -210 -291 -169 -225 -264 -356 -328 -452 -116 -174 -285 -389 -503 -641
-64 -74 -149 -172 -189 -219 -314 -364 -728 -768 -1209 -1178 -209 -178 -225
-191 -321 -257 -109 -76 -166 -116 -280 -200 -44 -33 -109 -80 -144 -105 -34
-25 -92 -66 -128 -93 -107 -77 -499 -312 -631 -378 -67 -34 -135 -71 -152 -83
-65 -49 -548 -301 -615 -321 -14 -4 -41 -18 -60 -30 -20 -13 -89 -44 -153 -69
-64 -25 -142 -58 -172 -72 -73 -33 -211 -86 -355 -136 -63 -22 -155 -56 -205
-75 -49 -19 -151 -52 -225 -73 -74 -21 -173 -50 -220 -65 -242 -75 -645 -166
-1105 -249 -137 -25 -284 -52 -325 -61 -82 -17 -984 -167 -1145 -190 -55 -8
-228 -28 -385 -45 -319 -34 -513 -56 -900 -99 -454 -51 -1005 -103 -2045 -191
-198 -17 -430 -37 -515 -45 -85 -8 -303 -28 -485 -45 -181 -16 -424 -41 -540
-55 -115 -13 -350 -38 -522 -55 -171 -16 -410 -41 -530 -55 -120 -13 -308 -31
-418 -40 -110 -9 -499 -50 -865 -91 -681 -76 -760 -85 -1175 -129 -132 -14
-341 -39 -465 -55 -197 -26 -922 -111 -1205 -141 -310 -33 -541 -64 -1470
-194 -253 -35 -579 -80 -725 -100 -146 -20 -382 -54 -524 -76 -143 -22 -341
-51 -440 -65 -276 -38 -455 -64 -516 -74 -30 -5 -73 -12 -95 -15 -68 -9 -879
-150 -1080 -188 -104 -20 -291 -55 -415 -77 -124 -22 -283 -52 -355 -65 -71
-13 -240 -45 -375 -70 -135 -25 -333 -66 -440 -91 -107 -25 -278 -63 -380 -84
-344 -72 -823 -201 -1275 -345 -82 -26 -224 -71 -315 -100 -273 -85 -615 -223
-867 -347 -166 -82 -500 -321 -555 -398 -69 -96 -113 -278 -90 -367 17 -61 74
-175 115 -225 48 -61 189 -167 312 -237 61 -34 126 -75 145 -90 126 -98 972
-406 1470 -535 162 -42 346 -92 480 -131 30 -8 91 -24 135 -34 468 -109 567
-133 604 -146 87 -30 706 -162 1111 -235 30 -6 135 -26 234 -45 98 -20 314
-58 480 -85 473 -79 879 -149 1006 -176 92 -18 405 -70 480 -79 30 -3 147 -22
260 -40 113 -19 300 -46 415 -60 188 -23 431 -57 705 -100 52 -9 262 -36 465
-60 204 -25 442 -54 530 -65 88 -11 291 -33 450 -50 160 -17 405 -44 545 -60
140 -17 392 -43 560 -60 664 -65 1080 -111 1110 -123 14 -5 61 -11 105 -13 44
-2 108 -9 143 -14 34 -6 124 -17 200 -25 75 -7 277 -30 447 -49 600 -68 815
-87 1645 -146 290 -20 1063 -86 1190 -100 148 -17 807 -72 1445 -120 220 -16
549 -41 730 -54 182 -14 472 -34 645 -46 440 -29 790 -59 820 -69 14 -5 68
-12 120 -15 429 -27 583 -37 700 -46 74 -5 207 -14 295 -20 271 -17 738 -48
1210 -80 83 -6 242 -17 355 -25 113 -8 273 -19 355 -25 256 -17 435 -30 550
-40 61 -5 279 -21 485 -35 772 -52 1446 -105 1635 -130 127 -17 427 -59 535
-75 208 -30 769 -149 1020 -215 52 -13 185 -47 295 -74 314 -77 538 -136 695
-184 299 -91 824 -286 897 -333 12 -7 50 -25 85 -38 35 -13 135 -59 223 -101
88 -43 189 -91 225 -107 36 -16 103 -51 150 -77 47 -27 147 -80 223 -119 133
-69 246 -140 522 -329 72 -49 166 -113 210 -143 95 -65 330 -237 435 -319 388
-302 1031 -946 1451 -1451 150 -181 363 -448 434 -545 32 -44 133 -177 225
-295 91 -118 184 -242 207 -275 107 -158 374 -572 490 -760 72 -115 186 -295
255 -400 69 -104 201 -316 293 -470 192 -320 326 -527 500 -770 67 -93 168
-237 225 -320 57 -82 137 -195 179 -250 41 -55 104 -140 139 -190 87 -120 233
-304 402 -505 76 -91 180 -217 232 -281 172 -215 205 -254 323 -379 64 -69
151 -163 193 -210 42 -47 198 -209 347 -360 150 -151 311 -316 358 -367 99
-105 180 -182 287 -273 41 -35 183 -171 315 -300 132 -130 276 -263 320 -297
86 -65 154 -121 341 -279 105 -88 161 -132 312 -247 21 -15 113 -82 205 -150
92 -67 234 -171 315 -231 134 -99 295 -217 522 -381 47 -34 131 -90 188 -124
56 -34 212 -135 346 -224 254 -168 597 -383 771 -482 55 -32 170 -103 255
-158 160 -103 361 -214 535 -295 166 -78 402 -195 541 -269 72 -39 169 -88
215 -108 46 -21 141 -66 210 -101 70 -34 175 -83 235 -108 60 -25 159 -66 219
-91 199 -84 346 -142 650 -258 280 -107 391 -149 685 -257 63 -23 230 -78 370
-121 140 -43 332 -104 425 -134 94 -30 253 -75 355 -101 102 -26 214 -55 250
-64 194 -53 893 -225 1019 -250 80 -17 162 -34 181 -40 39 -11 732 -125 995
-164 218 -32 547 -69 845 -96 129 -11 348 -32 485 -45 391 -39 621 -54 984
-65 185 -6 343 -13 351 -16 8 -3 152 -5 320 -4 412 1 1054 35 1420 75 74 8
248 24 385 35 293 24 510 49 789 91 427 63 574 87 671 109 44 9 87 14 95 10 8
-4 67 3 130 16 63 12 221 43 350 69 129 25 262 52 295 59 121 27 655 167 820
215 293 84 1205 360 1325 401 257 86 581 211 930 359 41 18 133 55 204 82 71
28 154 63 185 78 31 16 110 50 176 76 162 65 345 149 555 255 96 49 272 136
390 194 118 57 278 139 355 182 77 42 217 116 310 163 94 48 283 154 420 235
138 82 327 194 420 250 94 55 233 143 310 195 77 52 277 186 445 299 303 203
425 290 551 393 37 30 104 82 150 115 194 142 485 366 609 469 73 61 158 130
190 155 32 25 101 81 155 125 53 44 122 100 153 123 146 112 831 749 1047 973
50 52 166 165 258 252 91 87 226 228 299 314 73 86 160 186 193 224 33 38 109
126 170 196 60 70 144 166 186 213 101 112 243 281 387 460 371 464 390 488
480 594 43 51 69 88 238 346 48 74 101 148 116 165 16 16 92 128 171 247 132
202 216 335 501 793 61 99 127 202 146 229 54 75 112 167 207 331 151 260 607
929 765 1123 23 29 47 60 52 70 42 76 515 679 711 907 214 249 709 761 881
911 49 43 124 108 165 144 41 36 108 97 149 135 157 148 812 618 1102 791 239
142 272 160 613 334 493 250 773 365 1212 495 142 42 301 89 353 105 52 16
248 68 435 115 187 47 354 92 372 100 38 18 165 48 508 120 657 136 1176 200
2000 245 428 23 580 33 875 54 113 9 315 22 450 31 575 35 1226 76 1505 95
165 11 401 27 525 36 124 8 344 23 490 34 146 10 317 22 380 25 63 3 178 12
255 20 155 16 424 39 645 55 80 6 260 19 400 30 455 36 640 50 935 70 549 39
1528 121 1620 135 17 3 194 19 395 35 201 17 412 35 470 40 58 5 170 14 250
20 448 32 846 63 1085 85 763 72 1327 130 1555 160 102 14 293 36 425 50 132
14 398 43 590 65 502 56 598 66 900 95 337 32 526 54 970 110 192 25 510 65
705 90 195 25 515 67 710 95 195 27 471 66 613 85 141 20 348 52 460 71 185
32 286 48 662 104 72 11 175 26 230 35 55 8 262 44 460 79 198 36 472 83 608
105 137 23 321 56 410 75 89 19 259 55 377 80 417 88 501 107 682 157 101 27
294 78 430 114 920 239 1380 383 1708 535 58 26 148 67 200 90 209 93 327 153
370 189 25 21 59 45 75 54 52 27 172 130 214 183 55 70 89 177 96 306 5 92 3
105 -19 154 -33 72 -189 248 -310 350 -91 76 -119 92 -320 187 -122 58 -250
115 -286 128 -36 12 -76 31 -90 41 -14 9 -106 44 -205 77 -99 33 -236 81 -305
106 -69 25 -163 57 -210 72 -417 127 -818 242 -1045 299 -38 9 -77 21 -86 25
-9 4 -110 29 -225 54 -115 25 -299 66 -409 91 -264 60 -951 197 -1160 231 -16
2 -138 24 -270 49 -132 24 -395 69 -584 99 -189 30 -419 69 -510 86 -153 28
-386 66 -556 90 -87 12 -569 85 -690 104 -49 8 -126 19 -170 24 -44 6 -163 22
-265 36 -102 14 -234 32 -293 40 -60 8 -112 17 -116 19 -4 3 -61 12 -127 20
-65 8 -256 33 -424 55 -278 36 -674 86 -890 111 -47 5 -155 17 -240 25 -195
19 -545 59 -805 90 -110 14 -319 38 -465 55 -146 16 -317 36 -380 45 -259 33
-468 56 -695 75 -132 11 -303 27 -380 35 -181 19 -677 68 -1015 100 -146 13
-305 29 -355 34 -249 27 -545 53 -870 76 -360 26 -665 53 -890 80 -66 8 -194
21 -285 30 -549 51 -858 82 -1250 125 -96 11 -380 40 -630 65 -455 46 -665 68
-965 105 -88 11 -259 31 -380 45 -121 14 -294 34 -385 45 -188 22 -449 58
-459 64 -4 3 -117 21 -251 40 -334 49 -397 59 -605 96 -315 55 -446 80 -630
119 -99 22 -229 49 -290 61 -125 24 -248 54 -415 100 -63 17 -180 49 -260 70
-402 105 -694 202 -1210 402 -114 44 -319 133 -435 188 -66 32 -165 78 -220
102 -55 25 -183 94 -285 155 -102 60 -249 144 -327 186 -253 138 -452 267
-791 517 -56 41 -131 96 -166 121 -67 48 -237 180 -340 264 -33 28 -113 92
-176 142 -63 51 -178 153 -255 227 -77 74 -178 168 -225 209 -47 40 -116 111
-154 158 -78 97 -97 117 -301 334 -82 88 -204 223 -270 299 -66 77 -151 173
-188 215 -37 41 -70 86 -74 100 -3 14 -36 58 -72 96 -59 61 -161 195 -459 597
-116 157 -184 257 -244 358 -31 52 -123 190 -205 307 -81 116 -206 301 -277
410 -334 512 -477 731 -545 840 -41 65 -138 219 -216 343 -77 124 -186 292
-241 374 -54 81 -128 196 -164 255 -36 58 -79 126 -96 151 -17 25 -55 85 -83
133 -29 48 -82 129 -117 180 -36 51 -121 175 -190 277 -141 210 -179 264 -284
406 -41 56 -118 163 -170 239 -52 75 -135 191 -185 257 -49 66 -130 177 -180
248 -49 71 -153 203 -230 295 -222 265 -303 365 -361 447 -135 190 -292 371
-980 1133 -535 591 -675 733 -1139 1154 -94 85 -228 210 -300 277 -246 230
-673 600 -935 810 -444 356 -656 518 -910 699 -69 49 -188 136 -265 194 -147
110 -754 525 -985 673 -254 162 -615 384 -720 443 -58 32 -161 91 -230 130
-69 40 -174 98 -234 130 -61 32 -160 87 -220 122 -115 66 -646 334 -1006 508
-492 238 -557 268 -770 360 -419 181 -547 234 -670 277 -63 21 -153 55 -200
75 -111 46 -150 60 -180 68 -14 4 -104 36 -200 72 -96 36 -247 89 -335 118
-88 30 -205 69 -260 88 -165 58 -787 255 -985 312 -102 29 -214 63 -250 74
-109 33 -457 128 -590 160 -69 16 -246 59 -395 95 -148 36 -337 79 -420 96
-152 31 -287 59 -405 85 -36 8 -128 26 -205 40 -77 14 -183 34 -235 45 -52 10
-115 21 -140 25 -25 3 -153 22 -285 42 -132 19 -280 39 -330 43 -49 5 -182 20
-295 34 -374 46 -895 98 -1235 122 -889 63 -1758 91 -2300 74z m1225 -1525
c633 -26 947 -49 1590 -121 409 -45 638 -78 1380 -200 309 -51 771 -138 1102
-208 209 -44 589 -137 728 -177 58 -17 166 -48 240 -69 283 -81 561 -162 710
-209 85 -27 227 -72 315 -99 88 -28 225 -74 305 -102 80 -28 228 -80 330 -115
206 -70 353 -125 480 -180 47 -20 105 -44 130 -55 291 -122 479 -204 648 -284
111 -53 204 -96 207 -96 3 0 72 -32 153 -71 382 -185 933 -453 982 -479 196
-100 306 -159 380 -203 47 -28 119 -69 160 -92 166 -93 300 -169 400 -230 58
-34 148 -88 200 -118 52 -31 169 -104 260 -162 91 -59 262 -168 380 -243 260
-166 469 -306 570 -382 41 -31 179 -130 305 -220 127 -90 259 -186 295 -214
36 -28 103 -79 150 -115 47 -35 146 -114 220 -176 170 -140 402 -325 500 -397
75 -55 118 -91 220 -183 30 -28 179 -159 330 -291 469 -410 1257 -1212 1685
-1714 87 -102 208 -239 269 -305 140 -151 184 -203 331 -395 65 -85 167 -216
226 -290 58 -74 147 -191 196 -260 48 -69 161 -222 250 -340 191 -256 267
-363 460 -655 80 -121 237 -357 348 -525 112 -168 236 -359 276 -425 40 -66
111 -178 159 -250 48 -71 144 -227 215 -345 71 -118 167 -276 215 -350 48 -74
118 -189 155 -255 80 -141 242 -412 366 -612 233 -375 277 -445 335 -533 34
-52 107 -169 164 -259 56 -90 156 -245 223 -345 67 -99 143 -212 168 -251 153
-237 342 -500 499 -695 42 -52 96 -120 121 -151 165 -210 462 -552 580 -668
38 -38 325 -312 476 -454 28 -27 102 -89 165 -139 62 -49 145 -115 183 -146
39 -31 89 -69 113 -85 24 -15 86 -60 139 -100 52 -39 144 -103 204 -142 60
-38 153 -100 207 -136 170 -117 824 -465 1047 -559 55 -23 118 -50 140 -60
131 -58 205 -85 344 -126 140 -41 251 -76 421 -136 299 -104 987 -286 1311
-348 618 -117 740 -137 1414 -229 961 -131 1324 -177 2395 -301 91 -10 255
-30 365 -44 110 -14 263 -32 340 -41 77 -9 237 -27 355 -41 118 -13 277 -31
352 -39 76 -8 431 -48 790 -89 359 -41 741 -84 848 -96 194 -20 284 -31 600
-70 738 -90 921 -113 1105 -140 116 -17 363 -51 550 -75 187 -25 529 -72 760
-105 231 -32 479 -66 550 -75 173 -21 437 -57 785 -106 343 -48 547 -80 965
-150 132 -22 332 -58 445 -79 113 -21 234 -44 270 -50 197 -34 792 -149 1035
-201 154 -33 325 -69 379 -80 145 -28 385 -84 591 -136 99 -25 198 -49 220
-54 166 -39 737 -226 895 -294 47 -20 101 -42 120 -50 144 -53 408 -200 516
-286 72 -57 158 -148 179 -190 31 -58 47 -156 35 -217 -16 -87 -46 -138 -139
-232 -119 -120 -300 -227 -612 -360 -541 -232 -1460 -485 -2504 -690 -143 -28
-406 -80 -585 -115 -179 -35 -408 -78 -510 -95 -102 -17 -295 -51 -430 -75
-135 -25 -351 -60 -480 -80 -129 -19 -269 -41 -310 -49 -117 -23 -598 -91
-995 -141 -198 -25 -391 -49 -430 -55 -143 -20 -239 -31 -630 -75 -220 -25
-510 -58 -645 -74 -309 -37 -617 -71 -1125 -121 -220 -22 -413 -43 -430 -45
-27 -5 -743 -79 -1020 -106 -60 -5 -207 -21 -325 -34 -330 -37 -704 -71 -1280
-115 -289 -22 -637 -52 -775 -65 -137 -14 -380 -34 -540 -45 -317 -21 -576
-40 -990 -70 -739 -55 -960 -71 -1190 -85 -137 -8 -470 -31 -740 -50 -269 -19
-688 -48 -930 -65 -427 -29 -643 -44 -1080 -75 -547 -39 -1161 -78 -1580 -100
-253 -14 -575 -31 -715 -40 -140 -8 -462 -26 -715 -40 -253 -14 -581 -32 -730
-40 -312 -18 -750 -39 -1115 -55 -140 -6 -412 -17 -605 -25 -192 -8 -552 -22
-800 -30 -728 -24 -1265 -44 -1345 -50 -101 -7 -652 -32 -985 -45 -666 -25
-810 -31 -1120 -45 -181 -8 -483 -19 -670 -25 -187 -5 -394 -12 -460 -15 -66
-3 -329 -10 -585 -15 -256 -5 -643 -14 -860 -20 -1094 -29 -1571 -41 -1945
-50 -225 -5 -477 -12 -560 -15 -82 -3 -436 -10 -785 -15 -349 -5 -903 -14
-1230 -19 -327 -6 -1049 -15 -1605 -21 -1217 -12 -2654 -31 -2750 -35 -318
-14 -1410 -20 -3525 -19 -1367 0 -2584 2 -2705 3 -121 1 -267 2 -325 2 -58 0
-159 4 -225 10 -66 5 -570 14 -1120 19 -1196 12 -2537 27 -3020 35 -3104 50
-3758 63 -5206 105 -197 5 -581 14 -855 20 -785 15 -1308 32 -1884 60 -217 11
-552 24 -745 30 -552 17 -1166 40 -1210 45 -22 3 -184 9 -360 15 -176 6 -484
17 -685 25 -201 9 -651 26 -1000 40 -802 31 -1196 49 -1780 80 -477 25 -996
50 -1270 60 -85 3 -252 12 -370 20 -118 8 -264 16 -325 20 -60 3 -236 12 -390
20 -154 9 -383 20 -510 25 -126 5 -385 21 -575 34 -190 14 -471 32 -625 40
-154 9 -305 18 -335 21 -30 3 -174 12 -320 20 -146 9 -398 24 -560 35 -162 11
-450 29 -640 40 -190 11 -475 29 -635 40 -159 11 -465 31 -680 45 -490 32
-743 49 -1060 75 -137 11 -434 33 -660 50 -476 35 -1049 84 -1250 105 -346 38
-527 55 -760 75 -284 23 -857 76 -985 90 -47 5 -265 25 -485 45 -700 62 -1318
127 -1965 204 -228 28 -568 69 -755 91 -327 39 -1096 140 -1220 160 -33 5
-217 30 -410 56 -192 25 -372 50 -400 55 -73 14 -242 44 -575 100 -311 52
-488 84 -685 124 -66 13 -174 34 -240 45 -66 12 -167 30 -225 40 -285 50
-1023 214 -1280 285 -69 18 -152 39 -185 44 -130 23 -654 193 -940 305 -66 26
-178 77 -249 112 -475 240 -635 385 -636 576 0 71 21 169 42 197 87 111 151
169 301 270 228 153 896 430 1367 566 63 19 146 43 184 54 124 37 774 191
1125 267 1063 231 1842 373 2786 509 99 14 252 37 340 50 88 14 320 45 515 70
195 25 474 63 620 84 602 89 1102 161 1215 176 503 67 1499 179 2355 265 330
34 575 60 805 85 121 13 405 43 630 65 450 45 698 73 1055 119 129 17 314 40
410 51 96 11 197 25 225 31 27 5 198 27 380 49 548 65 1426 182 1720 230 33 5
130 19 215 31 85 12 200 30 255 41 55 11 125 24 155 28 201 28 762 163 1125
272 327 97 516 160 700 230 50 19 171 65 270 103 480 182 1011 456 1480 763
218 143 708 512 885 667 187 164 545 508 629 606 36 42 104 120 150 173 46 53
104 123 130 155 25 32 80 98 121 147 71 84 190 241 310 409 30 43 82 112 116
154 33 42 79 103 102 136 23 33 68 96 100 140 32 44 98 139 146 210 49 72 94
137 101 145 14 16 200 309 280 440 25 41 63 102 85 135 38 59 99 157 226 365
35 58 87 146 114 195 28 50 77 131 109 180 84 128 331 532 331 540 0 3 35 62
79 132 43 71 115 191 161 268 80 137 131 220 195 320 17 28 50 79 72 115 211
340 324 519 376 595 35 50 97 140 138 200 72 105 242 351 316 459 20 28 43 60
53 71 10 11 62 86 116 166 124 182 124 182 439 606 49 67 112 152 140 190 102
140 283 367 545 683 80 97 241 281 574 658 189 215 617 651 1057 1077 255 248
556 516 909 810 59 50 186 156 282 237 96 80 220 181 276 225 55 43 145 114
199 158 54 44 139 110 188 146 50 36 164 119 253 185 90 65 219 159 285 208
253 186 527 370 837 564 74 46 200 126 280 177 130 83 304 187 565 340 182
106 221 128 480 266 55 29 174 93 265 142 314 168 956 477 1330 642 30 13 116
52 190 86 74 34 162 72 195 85 33 12 110 44 170 69 61 26 166 69 235 97 69 27
150 60 180 73 30 13 102 39 160 58 110 37 233 81 485 174 183 68 341 118 590
188 184 51 284 81 630 185 88 27 205 62 260 79 55 16 152 42 215 56 63 14 232
55 375 90 287 71 287 71 698 155 271 56 721 135 1027 180 522 77 715 103 945
129 99 11 221 25 270 31 242 28 1207 93 1530 103 299 9 1086 5 1405 -8z
m16957 -25197 c-3 -13 -12 -43 -21 -68 -8 -25 -40 -136 -70 -246 -99 -354
-310 -1010 -396 -1229 -26 -66 -73 -187 -105 -270 -104 -270 -401 -961 -542
-1260 -122 -260 -367 -723 -529 -1002 -46 -78 -97 -169 -114 -202 -91 -181
-526 -877 -862 -1381 -393 -588 -524 -771 -794 -1110 -251 -315 -352 -440
-400 -490 -23 -25 -73 -81 -111 -126 -144 -170 -263 -304 -403 -453 -144 -154
-790 -798 -905 -901 -33 -30 -103 -95 -155 -145 -113 -107 -355 -317 -416
-361 -24 -17 -51 -41 -61 -52 -10 -12 -53 -50 -95 -84 -42 -35 -141 -117 -220
-183 -79 -66 -177 -145 -218 -175 -41 -30 -151 -113 -245 -186 -334 -257 -693
-512 -960 -682 -55 -35 -201 -128 -325 -207 -223 -143 -771 -475 -945 -573
-206 -116 -533 -289 -720 -381 -297 -147 -514 -251 -520 -251 -3 0 -49 -21
-103 -46 -53 -26 -135 -63 -182 -84 -47 -21 -116 -52 -154 -70 -39 -17 -90
-40 -115 -49 -62 -24 -502 -206 -571 -235 -30 -13 -107 -43 -170 -66 -63 -22
-158 -57 -210 -76 -352 -132 -607 -222 -750 -266 -91 -27 -178 -54 -195 -59
-16 -6 -149 -41 -295 -80 -146 -38 -305 -81 -355 -95 -86 -24 -394 -99 -760
-185 -393 -93 -890 -181 -1260 -223 -22 -3 -69 -9 -105 -15 -362 -58 -886
-108 -1530 -146 -454 -27 -1466 -19 -1940 15 -440 32 -559 41 -690 55 -80 8
-156 17 -170 20 -14 3 -108 14 -210 25 -270 30 -758 108 -1025 163 -66 14
-214 44 -330 67 -115 23 -282 60 -370 81 -88 21 -209 51 -270 65 -60 14 -175
43 -255 64 -80 20 -188 47 -240 59 -52 12 -115 28 -140 36 -25 7 -97 28 -160
45 -195 54 -556 166 -740 230 -96 34 -201 70 -233 81 -278 94 -993 373 -1324
518 -89 38 -250 113 -359 165 -108 53 -199 96 -201 96 -14 0 -776 384 -938
472 -340 187 -810 465 -1110 658 -200 128 -680 454 -780 529 -44 33 -125 94
-180 135 -102 76 -263 199 -447 341 -105 81 -301 244 -553 460 -164 140 -282
239 -333 278 -69 53 -307 275 -503 469 -206 204 -775 788 -874 898 -32 36
-100 110 -150 165 -186 203 -393 451 -610 731 -60 78 -173 222 -250 320 -129
165 -199 258 -419 559 -94 130 -354 506 -476 690 -81 121 -353 577 -572 955
-227 392 -536 994 -745 1450 -137 299 -382 893 -493 1195 -35 94 -87 235 -117
315 -30 80 -85 235 -122 345 -38 110 -83 241 -101 290 -80 221 -180 586 -180
654 0 17 6 21 33 22 62 2 235 -2 647 -16 228 -8 566 -19 750 -25 184 -6 515
-17 735 -25 882 -33 2057 -69 3090 -95 220 -5 488 -12 595 -15 107 -3 319 -8
471 -11 152 -3 281 -9 286 -13 14 -8 51 -83 103 -206 54 -126 144 -306 225
-449 34 -61 86 -158 115 -216 78 -156 200 -365 299 -513 48 -73 105 -161 126
-197 93 -157 314 -474 494 -709 69 -90 135 -175 146 -190 45 -59 247 -305 351
-426 362 -423 905 -977 1265 -1290 19 -16 72 -64 119 -106 47 -42 150 -127
230 -189 80 -63 199 -157 265 -211 195 -157 446 -336 840 -598 415 -277 504
-331 825 -502 678 -360 976 -496 1605 -731 286 -107 465 -168 715 -243 441
-133 528 -156 785 -209 214 -45 266 -54 510 -95 132 -22 267 -45 300 -50 323
-55 789 -109 1135 -132 225 -15 1062 -15 1295 0 240 16 630 48 735 61 47 6 96
10 110 10 14 0 54 6 90 14 36 8 115 22 175 30 61 9 139 21 175 26 36 6 94 16
130 21 36 6 88 15 115 20 28 5 106 18 175 29 210 35 705 146 845 190 33 10
125 37 205 60 371 107 995 329 1320 471 36 15 115 49 175 75 264 112 1162 584
1395 734 58 37 123 78 145 90 229 133 708 464 986 680 374 291 553 443 799
675 58 55 160 151 228 213 234 217 644 646 812 848 312 376 425 522 649 839
62 88 144 203 182 255 220 303 491 740 674 1088 73 137 130 241 160 292 19 30
54 105 79 165 25 61 72 169 105 240 l60 130 107 7 c177 11 652 27 1124 38 699
16 1194 30 1455 40 132 5 377 14 545 20 415 14 818 29 1100 40 129 5 397 14
595 20 198 6 518 18 710 26 466 22 703 30 859 32 l128 2 -5 -22z m-8347 -207
c0 -5 -16 -29 -35 -53 -53 -65 -134 -185 -144 -210 -5 -13 -53 -95 -106 -183
-54 -88 -123 -203 -155 -255 -113 -188 -186 -298 -317 -480 -117 -164 -355
-480 -401 -535 -10 -11 -40 -49 -67 -85 -27 -36 -83 -101 -124 -145 -40 -44
-128 -145 -194 -225 -227 -273 -801 -823 -1166 -1118 -106 -87 -225 -183 -265
-215 -271 -219 -995 -701 -1331 -885 -183 -100 -748 -379 -895 -442 -281 -121
-754 -295 -1000 -370 -52 -16 -169 -52 -260 -80 -631 -196 -1201 -306 -2000
-385 -982 -96 -1793 -56 -2915 145 -269 48 -893 202 -1015 250 -41 16 -149 52
-240 80 -481 149 -718 243 -1257 498 -300 143 -455 226 -788 425 -294 176
-726 459 -910 597 -345 258 -671 524 -865 705 -387 362 -627 604 -796 800 -37
44 -118 137 -179 206 -232 265 -638 801 -808 1069 -169 265 -274 440 -344 575
-54 102 -87 153 -123 188 -48 46 -69 85 -56 106 4 6 69 8 178 6 141 -4 174 -7
189 -21 10 -9 57 -86 104 -171 127 -228 447 -720 590 -908 34 -44 92 -120 130
-170 103 -136 433 -531 553 -662 59 -64 162 -178 229 -254 200 -225 715 -696
1018 -931 388 -301 823 -603 1110 -770 99 -58 248 -144 330 -193 287 -168 740
-382 1135 -535 47 -19 135 -53 195 -78 577 -232 1248 -411 1960 -521 975 -152
1798 -170 2855 -66 80 8 163 19 184 24 22 5 43 8 46 6 3 -2 62 5 130 16 69 10
154 23 190 29 58 9 196 35 390 75 312 64 694 168 940 255 91 32 242 86 335
119 258 91 265 93 490 189 556 237 1112 525 1465 757 52 34 113 73 135 86 47
28 296 203 434 305 53 39 128 93 166 119 73 50 354 273 462 367 301 259 436
384 678 629 368 374 426 440 829 939 199 248 431 583 701 1015 166 265 206
325 231 342 16 10 63 16 161 20 76 3 140 7 142 9 9 8 71 4 71 -5z"/>
<path d="M54850 50049 c-608 -19 -1234 -71 -2000 -165 -583 -71 -967 -137
-1680 -285 -533 -111 -1245 -299 -1660 -438 -47 -16 -121 -40 -165 -54 -316
-100 -627 -207 -870 -302 -33 -13 -103 -40 -155 -60 -216 -84 -862 -353 -1085
-452 -283 -126 -385 -175 -655 -312 -135 -68 -308 -155 -385 -194 -188 -93
-655 -357 -775 -438 -31 -20 -121 -75 -200 -122 -244 -144 -502 -304 -665
-414 -628 -423 -1007 -697 -1470 -1067 -147 -117 -340 -279 -360 -302 -5 -6
-74 -67 -152 -135 -78 -68 -221 -194 -319 -279 -207 -181 -945 -909 -1232
-1214 -222 -235 -316 -341 -417 -466 -38 -47 -87 -103 -109 -125 -23 -22 -158
-186 -301 -364 -325 -405 -385 -482 -637 -820 -51 -68 -112 -149 -135 -180
-64 -86 -579 -859 -670 -1006 -233 -379 -435 -719 -478 -805 -15 -30 -53 -98
-85 -150 -31 -52 -77 -135 -102 -185 -39 -79 -238 -440 -288 -520 -10 -16 -43
-75 -73 -130 -81 -150 -119 -219 -127 -230 -5 -5 -30 -53 -58 -105 -49 -93
-196 -361 -246 -450 -27 -48 -96 -159 -266 -430 -57 -91 -133 -213 -169 -271
-36 -59 -110 -175 -164 -258 -54 -83 -122 -191 -152 -240 -30 -50 -86 -134
-125 -188 -38 -54 -82 -117 -97 -141 -15 -24 -61 -86 -101 -139 -40 -52 -84
-112 -97 -133 -34 -53 -176 -229 -260 -321 -38 -42 -133 -146 -210 -230 -210
-231 -441 -454 -530 -512 -19 -12 -39 -32 -46 -43 -6 -12 -46 -46 -88 -75 -42
-29 -108 -79 -146 -110 -98 -79 -305 -223 -366 -256 -28 -14 -80 -46 -115 -69
-68 -46 -464 -249 -555 -284 -29 -12 -64 -29 -78 -39 -64 -45 -550 -225 -742
-275 -74 -19 -157 -44 -185 -55 -50 -20 -472 -126 -723 -182 -74 -17 -227 -46
-340 -65 -113 -19 -212 -37 -220 -39 -21 -8 -315 -56 -826 -135 -247 -38 -477
-74 -510 -80 -129 -21 -369 -51 -895 -110 -146 -17 -479 -57 -740 -90 -261
-32 -639 -77 -840 -100 -437 -48 -493 -56 -950 -126 -195 -30 -492 -75 -660
-99 -288 -42 -1197 -180 -1615 -245 -195 -31 -635 -108 -1130 -200 -894 -165
-1536 -308 -2102 -470 -133 -38 -282 -77 -329 -87 -55 -10 -96 -25 -113 -39
-14 -12 -42 -25 -61 -29 -163 -35 -443 -159 -671 -297 -175 -106 -299 -261
-299 -373 0 -89 23 -144 88 -211 107 -110 172 -152 467 -303 126 -65 367 -161
680 -273 331 -117 898 -261 1380 -349 121 -22 375 -71 565 -109 1104 -221
2014 -355 3330 -490 113 -12 448 -48 745 -81 297 -32 628 -68 735 -79 107 -12
274 -30 370 -40 329 -37 735 -79 850 -90 63 -5 210 -19 325 -30 311 -29 805
-67 1410 -110 77 -6 286 -21 465 -35 179 -13 424 -31 545 -40 121 -8 283 -19
360 -25 224 -16 427 -29 620 -40 276 -16 831 -49 920 -55 44 -3 161 -10 260
-15 99 -5 342 -19 540 -30 198 -11 446 -24 550 -30 105 -6 291 -17 415 -25
124 -8 403 -23 620 -34 1369 -70 1924 -94 2715 -116 587 -16 1036 -32 1150
-40 39 -3 138 -8 220 -10 83 -3 267 -9 410 -15 265 -10 522 -13 514 -6 -2 2
-62 6 -134 10 -180 9 -495 35 -695 56 -77 8 -198 17 -905 65 -121 8 -463 31
-760 50 -297 19 -637 42 -755 50 -118 8 -359 24 -535 35 -593 38 -639 41 -895
60 -140 11 -696 52 -1235 90 -539 39 -1088 79 -1220 90 -132 11 -332 27 -445
35 -674 49 -1460 109 -1820 140 -740 63 -959 84 -1385 130 -329 35 -715 75
-775 81 -77 6 -276 27 -525 54 -929 101 -1430 160 -1880 220 -186 25 -425 56
-935 120 -116 14 -462 65 -650 96 -85 13 -245 38 -355 55 -110 16 -252 39
-315 50 -63 12 -167 29 -230 39 -321 51 -891 158 -1170 220 -52 11 -160 34
-240 51 -142 30 -535 123 -668 158 -177 47 -526 152 -550 165 -15 9 -116 45
-225 81 -339 113 -667 279 -793 402 -51 50 -75 113 -60 163 33 119 201 264
401 349 44 19 114 51 155 72 136 67 429 167 878 299 244 71 296 84 782 194
490 111 759 162 1545 295 592 100 1227 195 1585 236 258 29 633 75 695 85 415
66 1860 221 2695 290 854 71 2236 229 2755 316 570 95 1216 255 1607 397 309
113 693 280 833 362 50 29 135 78 190 110 266 154 603 391 860 606 143 119
422 398 597 596 163 183 510 652 630 850 22 37 55 86 73 108 42 54 71 101 151
241 109 193 138 244 191 334 170 289 232 399 342 600 68 124 141 256 163 293
22 37 80 148 130 245 49 97 99 189 109 203 10 15 37 62 60 105 23 44 58 111
79 149 20 39 79 149 130 245 51 96 101 187 111 202 11 14 19 28 19 31 0 2 25
48 55 102 30 53 55 99 55 102 0 7 127 232 200 353 189 317 215 359 275 455 93
148 337 510 514 761 20 28 60 86 90 130 30 43 87 124 126 179 39 55 98 138
130 185 32 47 83 118 114 159 31 40 74 97 96 126 22 29 83 106 136 172 52 65
140 174 194 243 124 156 240 289 754 864 243 271 601 637 844 861 77 72 175
162 216 201 516 483 780 709 1102 943 79 58 176 130 214 162 457 369 1006 750
1770 1226 180 113 431 255 640 363 77 40 174 90 215 113 141 75 745 378 850
427 125 57 413 188 490 222 389 175 872 373 975 399 17 4 75 26 130 49 188 79
744 257 1390 445 121 36 245 73 275 84 30 11 129 35 220 55 91 20 228 52 306
71 279 69 790 168 1189 230 1284 199 1975 252 3125 240 562 -6 625 -8 1165
-45 907 -63 1818 -183 2500 -330 485 -104 781 -175 1020 -245 88 -26 243 -71
345 -100 609 -173 1326 -406 1560 -505 41 -18 152 -63 245 -100 94 -37 217
-89 275 -115 58 -25 183 -78 279 -116 247 -99 511 -227 1441 -700 85 -43 173
-89 195 -102 22 -12 87 -49 145 -81 118 -66 222 -127 355 -208 158 -96 570
-354 631 -395 172 -114 364 -247 488 -337 76 -56 211 -152 300 -215 88 -62
224 -161 300 -219 198 -149 766 -606 786 -632 4 -6 114 -103 346 -305 44 -38
107 -92 140 -120 119 -101 582 -551 797 -775 40 -41 101 -105 137 -141 36 -37
117 -122 180 -190 63 -68 160 -171 215 -229 55 -58 178 -197 272 -310 94 -113
224 -268 288 -345 237 -281 567 -700 683 -865 17 -25 71 -100 119 -168 176
-245 207 -290 317 -457 62 -93 149 -224 194 -290 44 -66 125 -193 179 -282 54
-90 175 -288 269 -440 95 -153 207 -339 250 -413 42 -74 118 -202 167 -285 49
-82 132 -226 185 -320 52 -93 138 -237 190 -320 53 -82 122 -195 155 -250 32
-55 88 -145 123 -200 36 -55 123 -188 192 -295 70 -107 141 -217 156 -245 16
-27 53 -81 81 -120 28 -38 91 -128 140 -200 118 -174 295 -410 386 -515 41
-47 114 -133 163 -190 303 -354 896 -939 1114 -1099 35 -25 107 -79 160 -119
118 -88 476 -328 552 -369 276 -150 345 -186 415 -212 44 -17 112 -47 150 -66
67 -33 210 -96 395 -172 523 -217 1742 -487 2725 -603 143 -17 271 -32 285
-35 14 -3 77 -11 140 -20 63 -8 216 -28 339 -45 384 -52 1085 -138 1346 -165
138 -14 369 -39 515 -56 146 -16 423 -47 615 -69 193 -22 447 -51 565 -65 118
-14 271 -32 340 -40 69 -8 256 -30 415 -49 160 -19 411 -49 558 -66 148 -17
337 -42 420 -55 84 -13 238 -35 342 -49 1144 -153 1291 -174 1775 -250 564
-89 722 -115 940 -157 113 -21 320 -59 460 -84 323 -57 861 -166 1050 -211 80
-19 206 -48 280 -64 251 -54 853 -207 1015 -259 50 -16 137 -44 194 -61 96
-30 142 -48 356 -138 114 -48 380 -181 444 -222 54 -35 101 -70 215 -162 76
-61 106 -178 67 -263 -47 -104 -134 -180 -336 -294 -213 -121 -634 -301 -854
-365 -522 -154 -474 -141 -1236 -322 -318 -76 -992 -215 -1305 -269 -113 -20
-322 -58 -465 -85 -234 -44 -422 -76 -820 -140 -71 -12 -245 -36 -385 -55
-140 -19 -343 -48 -450 -64 -311 -48 -706 -100 -1620 -212 -529 -65 -584 -71
-1145 -129 -209 -21 -488 -50 -620 -64 -248 -26 -920 -90 -1600 -151 -214 -19
-502 -46 -640 -60 -137 -13 -295 -27 -350 -30 -190 -12 -1245 -99 -1925 -160
-91 -8 -257 -21 -370 -30 -113 -9 -347 -27 -520 -40 -419 -33 -784 -59 -1245
-90 -209 -14 -562 -39 -785 -55 -593 -43 -1465 -99 -1855 -120 -104 -5 -298
-17 -430 -25 -304 -19 -680 -41 -1045 -60 -466 -24 -1355 -77 -1565 -92 l-100
-7 65 -8 c36 -4 259 -3 495 3 237 5 702 14 1035 19 333 6 706 15 830 20 428
19 1146 50 1405 60 526 21 1557 70 2080 100 99 6 315 17 480 25 165 8 383 19
485 25 102 6 280 15 395 20 116 6 289 14 385 20 96 5 272 14 390 20 386 19
961 60 1500 105 96 8 333 26 525 40 193 14 454 34 580 45 127 11 343 29 480
40 316 25 809 67 940 80 55 5 208 19 340 30 132 12 431 39 665 60 234 22 576
53 760 70 184 17 414 40 510 50 96 11 265 29 375 40 110 11 234 25 275 30 41
6 201 26 355 45 154 20 325 42 380 49 179 25 623 84 940 126 459 60 593 78
775 106 91 14 273 41 405 60 132 19 278 41 325 49 47 8 162 26 255 40 482 72
1381 242 1805 340 85 19 269 60 408 91 140 30 265 60 279 65 15 5 99 27 187
49 193 46 645 185 746 229 14 6 95 36 180 67 178 65 547 242 665 319 107 70
251 201 291 267 49 79 59 130 39 214 -9 38 -26 87 -39 109 -30 50 -176 186
-274 254 -87 60 -455 229 -692 316 -85 31 -195 71 -245 90 -162 59 -393 125
-812 231 -429 107 -618 148 -1313 284 -228 45 -484 95 -568 111 -84 16 -219
41 -300 54 -386 63 -869 139 -1177 185 -187 27 -367 54 -400 60 -174 29 -850
128 -1100 160 -88 12 -216 29 -285 40 -636 97 -1279 184 -1890 256 -74 8 -241
29 -370 45 -550 70 -1271 160 -1345 169 -556 65 -971 117 -1205 150 -157 22
-388 53 -515 70 -205 28 -373 55 -825 136 -74 13 -238 42 -365 64 -365 63
-552 98 -720 135 -66 15 -158 35 -205 45 -256 54 -693 167 -798 206 -36 14
-91 30 -122 35 -63 12 -94 21 -403 123 -125 42 -232 76 -237 76 -9 0 -199 77
-285 115 -16 7 -50 18 -75 25 -41 10 -174 68 -210 91 -8 5 -64 33 -125 61
-188 89 -336 168 -435 233 -52 34 -124 80 -159 101 -35 21 -85 58 -112 81 -27
24 -67 52 -87 62 -21 11 -45 27 -53 37 -14 17 -167 142 -242 197 -21 16 -61
52 -90 81 -29 28 -68 63 -87 78 -76 56 -496 478 -585 587 -51 64 -114 136
-140 161 -25 25 -64 71 -86 102 -22 32 -67 88 -100 125 -33 38 -79 95 -102
128 -22 33 -73 102 -111 154 -39 51 -100 134 -134 185 -35 50 -85 118 -111
151 -26 33 -75 104 -108 157 -33 53 -77 116 -96 140 -20 24 -71 100 -114 170
-43 70 -119 192 -169 270 -51 79 -111 181 -134 228 -24 47 -51 94 -61 105 -10
11 -47 72 -82 135 -67 121 -121 213 -253 438 -44 75 -122 209 -174 297 -113
194 -199 338 -261 436 -26 41 -88 146 -139 234 -51 88 -118 201 -148 250 -31
50 -86 140 -122 200 -37 61 -98 158 -136 217 -38 59 -115 181 -172 270 -155
243 -536 805 -606 891 -18 23 -64 87 -102 142 -295 433 -705 945 -1093 1365
-58 63 -140 153 -181 200 -366 417 -818 870 -1265 1265 -49 44 -137 123 -195
176 -247 225 -623 540 -881 736 -52 39 -132 101 -179 137 -318 245 -492 370
-905 647 -184 123 -261 174 -462 303 -40 25 -103 65 -140 89 -97 62 -143 90
-278 169 -66 39 -178 109 -249 155 -71 47 -166 103 -210 125 -45 23 -189 101
-321 173 -247 136 -688 360 -900 458 -105 48 -252 114 -660 294 -55 25 -156
67 -225 95 -113 46 -177 74 -310 136 -25 12 -63 28 -85 35 -22 8 -170 64 -330
124 -159 61 -339 126 -400 146 -271 90 -582 188 -715 227 -80 23 -210 61 -290
85 -294 88 -742 201 -1155 289 -704 152 -1170 230 -1800 302 -71 8 -168 21
-215 29 -225 39 -861 91 -1400 115 -518 22 -844 28 -1130 19z"/>
<path d="M54675 43719 c-260 -9 -417 -22 -750 -60 -362 -40 -738 -94 -907
-130 -79 -17 -275 -57 -436 -90 -275 -55 -477 -102 -582 -133 -25 -8 -97 -28
-160 -46 -276 -76 -761 -233 -960 -310 -493 -190 -934 -388 -1290 -577 -157
-84 -542 -300 -630 -354 -223 -136 -331 -202 -435 -268 -152 -96 -612 -421
-730 -515 -49 -40 -121 -96 -159 -125 -37 -28 -89 -69 -115 -91 -25 -21 -120
-99 -211 -173 -283 -231 -567 -495 -891 -832 -215 -224 -647 -720 -800 -920
-34 -44 -83 -107 -109 -140 -26 -33 -72 -94 -101 -136 -30 -43 -79 -110 -110
-150 -167 -218 -632 -938 -831 -1284 -220 -384 -572 -1162 -692 -1530 -29 -88
-58 -171 -65 -184 -7 -13 -75 -208 -151 -435 -146 -431 -222 -689 -338 -1146
-123 -477 -179 -653 -293 -902 -87 -192 -227 -437 -316 -552 -21 -27 -49 -66
-63 -87 -54 -79 -212 -257 -282 -315 -40 -34 -118 -89 -173 -124 -55 -34 -122
-77 -150 -95 -27 -18 -95 -55 -150 -82 -55 -27 -109 -54 -120 -61 -11 -7 -85
-37 -165 -67 -80 -31 -161 -62 -180 -70 -19 -8 -118 -40 -220 -71 -218 -66
-406 -141 -472 -189 -54 -39 -76 -75 -84 -138 -7 -47 -1 -57 71 -112 145 -112
306 -160 940 -280 105 -20 235 -45 290 -55 204 -39 396 -70 590 -95 110 -14
229 -29 265 -35 36 -5 139 -21 230 -35 197 -29 532 -66 875 -95 138 -12 342
-30 455 -41 113 -10 227 -19 254 -19 l49 0 -7 48 c-84 641 -42 1791 93 2507
11 55 29 161 41 235 12 74 37 205 55 290 19 85 39 182 44 215 6 33 24 99 41
147 16 49 37 116 46 150 8 35 28 101 44 148 16 47 58 184 94 305 36 121 75
247 87 280 12 33 50 143 85 245 34 102 73 210 84 240 12 30 35 91 51 135 75
200 112 284 291 650 209 428 212 434 341 650 87 144 152 247 386 602 138 211
462 648 626 846 28 33 82 102 122 152 134 173 644 695 880 902 83 73 154 137
158 143 18 29 603 506 799 650 364 269 840 571 1324 842 343 192 788 396 1132
519 74 26 196 71 270 99 269 101 589 197 915 273 61 14 169 39 240 56 121 28
411 87 550 111 81 14 414 69 495 81 207 31 553 63 883 80 258 13 1115 7 1277
-10 58 -6 155 -16 215 -22 148 -14 402 -47 500 -64 906 -161 1358 -265 1755
-405 74 -26 196 -68 270 -93 633 -212 1201 -468 1735 -780 447 -262 575 -345
930 -598 468 -334 644 -480 1165 -965 275 -255 567 -563 750 -789 270 -333
374 -465 502 -634 116 -153 427 -627 494 -753 75 -141 129 -234 204 -353 31
-49 75 -126 98 -170 108 -210 302 -607 327 -670 15 -38 72 -175 127 -304 100
-234 138 -332 205 -530 19 -58 46 -135 60 -171 28 -76 160 -530 203 -700 29
-114 86 -382 176 -825 81 -400 152 -921 175 -1288 14 -220 16 -719 6 -1151
l-9 -339 109 6 c59 3 158 11 218 16 61 6 225 22 365 36 264 26 847 95 1005
119 50 8 164 24 255 36 91 12 275 37 410 57 135 19 274 39 310 44 36 5 162 25
280 44 540 89 645 116 819 206 46 24 102 54 125 65 60 32 88 75 81 124 -5 32
-2 46 14 66 25 32 14 61 -27 69 -15 3 -94 39 -177 80 -82 40 -206 93 -275 116
-69 23 -145 51 -170 61 -25 11 -97 37 -160 58 -142 47 -252 95 -486 212 -270
134 -436 256 -591 429 -134 151 -165 191 -260 339 -169 264 -345 636 -398 840
-8 32 -30 103 -49 157 -36 103 -74 244 -101 378 -9 44 -27 116 -41 160 -13 44
-37 136 -54 205 -17 69 -65 238 -107 375 -41 138 -95 318 -118 400 -24 83 -80
251 -125 375 -45 124 -94 261 -110 305 -46 129 -123 319 -189 467 -33 76 -61
144 -61 151 0 21 -279 570 -351 692 -36 61 -108 184 -159 275 -227 399 -522
867 -722 1144 -137 190 -418 561 -455 601 -10 11 -54 63 -98 115 -327 390
-465 542 -724 801 -284 284 -391 382 -674 620 -82 68 -190 159 -240 202 -173
148 -582 447 -917 672 -295 197 -410 269 -886 548 -295 173 -750 395 -1179
574 -304 127 -343 142 -555 214 -383 131 -563 189 -710 228 -41 11 -138 38
-215 61 -160 47 -592 148 -794 185 -75 14 -152 30 -171 35 -74 19 -372 69
-530 89 -522 66 -741 86 -1205 111 -190 11 -844 10 -1140 -1z"/>
<path d="M54660 41823 c-232 -11 -618 -50 -889 -88 -323 -47 -790 -135 -942
-179 -46 -13 -199 -54 -339 -89 -140 -36 -275 -72 -300 -80 -25 -8 -92 -30
-150 -47 -210 -64 -437 -142 -545 -186 -371 -154 -375 -155 -724 -325 -329
-161 -505 -255 -796 -424 -115 -67 -230 -133 -255 -145 -25 -13 -61 -37 -82
-54 -20 -17 -62 -47 -95 -66 -134 -79 -423 -282 -648 -457 -135 -104 -407
-324 -503 -406 -173 -148 -755 -739 -908 -922 -32 -38 -63 -75 -69 -81 -5 -6
-35 -38 -65 -70 -30 -33 -74 -84 -97 -114 -23 -30 -54 -68 -69 -85 -104 -118
-434 -572 -595 -820 -15 -22 -65 -99 -112 -172 -47 -72 -107 -169 -134 -215
-26 -46 -59 -99 -74 -118 -15 -19 -63 -107 -108 -195 -44 -88 -114 -223 -154
-300 -265 -503 -425 -907 -686 -1730 -174 -550 -233 -815 -331 -1489 -79 -550
-118 -1215 -100 -1717 5 -151 12 -368 16 -482 5 -137 11 -210 18 -212 11 -4
207 -27 386 -45 166 -17 367 -31 1050 -70 102 -6 295 -17 430 -26 1008 -61
1788 -96 2640 -120 305 -8 692 -19 860 -24 650 -20 1439 -39 1985 -50 313 -6
680 -16 815 -23 436 -21 4424 -14 4460 8 3 2 219 6 480 9 851 11 1129 17 1490
31 195 8 452 17 570 20 608 15 1748 52 2060 66 124 5 323 14 443 19 120 5 296
14 392 20 96 6 261 15 367 20 384 19 997 50 1163 60 94 5 217 12 275 15 188
11 563 45 655 61 50 8 95 20 101 27 37 39 65 858 45 1272 -25 520 -66 875
-162 1410 -63 348 -202 953 -254 1108 -14 39 -43 133 -64 207 -112 383 -243
740 -389 1055 -38 83 -103 227 -146 320 -146 321 -313 631 -566 1045 -245 404
-565 852 -795 1116 -38 44 -126 148 -195 230 -185 220 -325 369 -583 616 -401
385 -994 870 -1432 1171 -225 154 -713 440 -980 574 -60 30 -157 82 -215 114
-58 32 -166 83 -240 113 -74 30 -187 77 -250 106 -283 127 -667 270 -975 364
-278 84 -431 122 -945 235 -508 112 -1067 186 -1595 211 -188 9 -980 11 -1145
3z"/>
</g>
</svg>
