<?xml version="1.0" encoding="UTF-8"?>
<svg xmlns="http://www.w3.org/2000/svg" xmlns:xlink="http://www.w3.org/1999/xlink" width="2048px" height="1143px" viewBox="0 0 2047 1143" version="1.1">
<g id="surface1">
<path style=" stroke:none;fill-rule:nonzero;fill:rgb(0%,0%,0%);fill-opacity:1;" d="M 1480.949219 165.867188 C 1478.71875 166.613281 1468.976562 170.035156 1459.378906 173.382812 C 1449.785156 176.734375 1435.726562 181.644531 1428.140625 184.175781 C 1420.550781 186.777344 1410.066406 190.425781 1404.710938 192.359375 C 1399.429688 194.296875 1393.03125 196.527344 1390.578125 197.347656 C 1378.75 201.363281 1378.75 201.363281 1375.996094 206.125 C 1374.585938 208.582031 1371.238281 214.386719 1368.558594 219 C 1365.882812 223.539062 1358.890625 235.667969 1353.011719 245.9375 C 1347.210938 256.132812 1341.261719 266.402344 1339.996094 268.632812 C 1338.65625 270.867188 1332.113281 282.253906 1325.417969 293.933594 C 1318.796875 305.617188 1311.285156 318.640625 1308.757812 322.957031 C 1306.226562 327.273438 1302.953125 332.929688 1301.539062 335.605469 C 1300.054688 338.285156 1295.960938 345.429688 1292.316406 351.605469 C 1285.996094 362.394531 1272.085938 386.730469 1265.613281 398.113281 C 1263.902344 401.167969 1259.886719 408.234375 1256.6875 413.742188 C 1253.488281 419.25 1249.769531 425.796875 1248.359375 428.253906 C 1246.945312 430.707031 1245.53125 432.941406 1245.308594 433.238281 C 1245.011719 433.535156 1225 433.832031 1200.902344 433.832031 C 1165.125 433.910156 1157.015625 433.757812 1156.867188 432.941406 C 1156.71875 432.421875 1158.132812 429.59375 1159.992188 426.765625 C 1164.527344 419.621094 1169.808594 410.617188 1172.859375 404.8125 C 1174.273438 402.132812 1177.398438 396.777344 1179.703125 392.90625 C 1182.007812 389.035156 1189.222656 376.460938 1195.695312 365 C 1202.167969 353.542969 1210.71875 338.660156 1214.664062 331.886719 C 1218.605469 325.113281 1225.226562 313.730469 1229.316406 306.585938 C 1240.695312 286.644531 1252.300781 266.625 1260.554688 252.636719 C 1265.910156 243.632812 1267.769531 239.910156 1267.027344 239.761719 C 1265.910156 239.464844 1245.828125 245.9375 1229.167969 251.890625 C 1224.257812 253.675781 1218.085938 255.835938 1215.40625 256.652344 C 1212.726562 257.546875 1209.902344 258.589844 1209.082031 258.960938 C 1207.449219 259.78125 1178.289062 269.824219 1168.917969 272.875 C 1165.644531 273.84375 1162 275.183594 1160.734375 275.703125 C 1159.546875 276.226562 1154.636719 277.863281 1149.949219 279.425781 C 1145.265625 280.988281 1136.5625 283.964844 1130.609375 286.121094 C 1124.660156 288.28125 1115.957031 291.257812 1111.269531 292.820312 C 1106.585938 294.308594 1101.75 296.019531 1100.484375 296.539062 C 1099.296875 297.0625 1091.039062 299.886719 1082.261719 302.789062 C 1069.023438 307.105469 1047.152344 314.398438 1042.914062 315.960938 C 1041.128906 316.558594 1042.617188 317.152344 1048.9375 318.269531 C 1057.417969 319.757812 1063.890625 320.949219 1074.824219 323.179688 C 1079.957031 324.222656 1087.320312 325.636719 1091.1875 326.304688 C 1095.054688 327.050781 1103.164062 328.539062 1109.113281 329.730469 C 1115.140625 330.917969 1121.238281 331.886719 1122.652344 331.886719 C 1125.703125 331.886719 1127.636719 332.480469 1127.636719 333.449219 C 1127.636719 333.894531 1124.808594 339.105469 1121.386719 345.132812 C 1117.964844 351.160156 1110.824219 363.734375 1105.542969 373.1875 C 1095.351562 391.195312 1076.535156 423.789062 1063.667969 445.738281 C 1059.5 452.882812 1053.996094 462.410156 1051.46875 466.949219 C 1048.863281 471.414062 1041.722656 483.988281 1035.402344 494.851562 C 1029.152344 505.71875 1018.21875 524.769531 1011.003906 537.269531 C 1003.863281 549.769531 992.332031 569.863281 985.417969 581.917969 C 978.425781 593.972656 971.953125 605.359375 970.910156 607.21875 C 966.746094 614.660156 944.582031 653.058594 941.308594 658.5625 C 939.96875 660.796875 936.324219 666.972656 933.347656 672.332031 C 930.300781 677.613281 924.496094 687.660156 920.480469 694.65625 C 916.464844 701.574219 911.480469 710.28125 909.324219 714.003906 C 907.242188 717.648438 902.851562 725.164062 899.726562 730.597656 C 896.15625 736.625 894.074219 740.941406 894.371094 741.609375 C 894.671875 742.28125 897.71875 747.859375 901.289062 754.113281 C 904.785156 760.289062 909.25 768.175781 911.183594 771.671875 C 913.117188 775.171875 918.175781 784.027344 922.414062 791.394531 C 926.730469 798.761719 934.167969 811.78125 939 820.414062 C 943.910156 828.972656 948.671875 837.308594 949.636719 838.871094 C 950.605469 840.433594 953.730469 845.789062 956.480469 850.777344 C 959.308594 855.761719 965.183594 866.03125 969.574219 873.621094 C 973.960938 881.210938 979.390625 890.734375 981.695312 894.828125 C 983.929688 898.921875 989.507812 908.59375 993.96875 916.410156 C 998.433594 924.148438 1003.417969 932.707031 1004.90625 935.382812 C 1006.390625 938.0625 1010.484375 945.058594 1013.832031 951.011719 C 1022.457031 966.117188 1022.832031 966.636719 1023.5 966.636719 C 1023.871094 966.636719 1027.886719 960.015625 1032.5 951.980469 C 1037.113281 943.867188 1041.722656 935.90625 1042.765625 934.269531 C 1043.804688 932.632812 1045.515625 929.582031 1046.632812 927.570312 C 1048.789062 923.554688 1053.625 915.070312 1062.105469 900.410156 C 1071.476562 884.335938 1084.34375 862.011719 1087.691406 855.984375 C 1089.476562 852.785156 1095.425781 842.441406 1100.859375 833.066406 C 1106.289062 823.613281 1111.941406 813.792969 1113.503906 811.113281 C 1116.851562 805.234375 1125.851562 789.53125 1133.4375 776.511719 C 1144.816406 756.867188 1158.429688 733.203125 1161.105469 728.511719 C 1162.59375 725.835938 1169.289062 714.300781 1175.984375 702.839844 C 1182.605469 691.382812 1191.15625 676.5 1194.949219 669.726562 C 1198.746094 662.953125 1204.25 653.28125 1207.222656 648.144531 C 1221.058594 624.410156 1226.414062 615.179688 1230.65625 607.589844 C 1233.257812 603.050781 1236.605469 597.171875 1238.242188 594.566406 C 1239.878906 591.890625 1244.789062 583.332031 1249.175781 575.59375 C 1253.640625 567.777344 1258.84375 558.773438 1260.78125 555.5 C 1264.277344 549.621094 1285.921875 512.042969 1294.175781 497.457031 C 1296.484375 493.363281 1302.359375 483.171875 1307.195312 474.761719 C 1312.027344 466.351562 1318.054688 456.007812 1320.507812 451.691406 C 1322.964844 447.378906 1327.277344 440.011719 1329.953125 435.320312 C 1332.707031 430.632812 1337.617188 422.078125 1340.890625 416.347656 C 1344.160156 410.617188 1349.667969 401.089844 1353.164062 395.136719 C 1356.582031 389.183594 1360.601562 382.339844 1361.9375 379.882812 C 1363.277344 377.429688 1367.964844 369.390625 1372.203125 362.023438 C 1380.164062 348.480469 1391.765625 328.316406 1395.261719 322.210938 C 1396.304688 320.351562 1398.980469 315.664062 1401.214844 311.792969 C 1403.445312 307.925781 1410.140625 296.167969 1416.015625 285.75 C 1421.964844 275.332031 1427.542969 265.582031 1428.4375 264.167969 C 1429.402344 262.757812 1432.007812 258.214844 1434.238281 254.125 C 1436.46875 250.03125 1443.238281 238.125 1449.339844 227.707031 C 1462.578125 204.863281 1476.042969 181.570312 1478.347656 177.476562 C 1479.316406 175.839844 1481.25 172.492188 1482.734375 170.109375 C 1485.042969 166.242188 1485.933594 164.378906 1485.265625 164.53125 C 1485.117188 164.53125 1483.183594 165.125 1480.949219 165.867188 Z M 1199.339844 508.695312 C 1200.007812 508.917969 1200.53125 509.511719 1200.53125 509.886719 C 1200.53125 510.703125 1195.027344 520.601562 1189.671875 529.457031 C 1187.960938 532.285156 1180.894531 544.5625 1173.976562 556.617188 C 1167.058594 568.671875 1159.246094 582.214844 1156.644531 586.753906 C 1154.117188 591.21875 1150.46875 597.621094 1148.609375 600.894531 C 1146.75 604.167969 1143.851562 609.152344 1142.140625 612.054688 C 1138.867188 617.414062 1121.460938 647.550781 1116.253906 656.703125 C 1109.1875 669.132812 1107.699219 671.808594 1105.542969 675.308594 C 1104.277344 677.316406 1101.230469 682.527344 1098.847656 686.839844 C 1093.34375 696.441406 1073.484375 730.96875 1068.128906 740.046875 C 1065.972656 743.695312 1063.292969 748.382812 1062.179688 750.464844 C 1061.0625 752.476562 1059.128906 755.824219 1057.9375 757.90625 C 1056.675781 759.917969 1052.882812 766.464844 1049.535156 772.417969 C 1046.113281 778.371094 1040.757812 787.523438 1037.632812 792.882812 C 1034.507812 798.164062 1030.121094 805.828125 1027.964844 809.773438 C 1025.730469 813.792969 1023.796875 817.066406 1023.574219 817.066406 C 1023.351562 817.066406 1021.789062 814.609375 1020.226562 811.632812 C 1018.589844 808.730469 1015.316406 802.925781 1012.863281 798.835938 C 1010.410156 794.742188 1006.988281 788.863281 1005.277344 785.8125 C 1001.855469 779.710938 991.144531 761.253906 984.523438 750.09375 C 982.21875 746.222656 980.359375 742.355469 980.359375 741.460938 C 980.359375 740.644531 981.621094 737.816406 983.257812 735.136719 C 986.160156 730.226562 993.597656 717.203125 1005.648438 695.769531 C 1009.441406 689 1014.796875 679.625 1017.550781 674.933594 C 1024.09375 663.847656 1037.261719 641.003906 1047.152344 623.589844 C 1051.46875 616 1059.871094 601.265625 1065.898438 590.847656 C 1084.34375 558.925781 1102.570312 526.851562 1107.402344 517.921875 C 1108.816406 515.242188 1110.675781 512.191406 1111.417969 511.074219 L 1112.832031 508.992188 L 1155.007812 508.769531 C 1178.214844 508.695312 1197.40625 508.546875 1197.703125 508.398438 C 1197.925781 508.324219 1198.671875 508.472656 1199.339844 508.695312 Z M 1199.339844 508.695312 "/>
<path style=" stroke:none;fill-rule:nonzero;fill:rgb(0%,0%,0%);fill-opacity:1;" d="M 562.328125 165.496094 C 562.328125 166.316406 563.445312 168.398438 570.140625 179.710938 C 575.644531 189.085938 581.445312 199.207031 589.109375 212.824219 C 594.835938 222.945312 596.175781 225.25 599 229.9375 C 600.636719 232.617188 603.390625 237.304688 605.101562 240.355469 C 606.808594 243.410156 610.605469 250.105469 613.503906 255.164062 C 616.480469 260.300781 618.859375 264.542969 618.859375 264.691406 C 618.859375 264.839844 619.679688 266.253906 620.644531 267.816406 C 621.613281 269.378906 624.589844 274.4375 627.191406 279.128906 C 629.867188 283.816406 633.960938 290.957031 636.339844 295.050781 C 638.71875 299.144531 641.398438 303.832031 642.289062 305.46875 C 646.753906 313.359375 650.324219 319.609375 660.589844 336.945312 C 661.929688 339.179688 672.042969 356.667969 674.722656 361.28125 C 675.613281 362.917969 678.515625 367.828125 681.117188 372.292969 C 683.722656 376.683594 685.804688 380.40625 685.804688 380.628906 C 685.804688 380.851562 687.441406 383.605469 689.375 386.804688 C 691.382812 389.929688 693.464844 393.5 694.136719 394.765625 C 694.730469 395.957031 696.441406 399.007812 697.855469 401.464844 C 712.285156 426.019531 712.210938 425.945312 719.351562 438.671875 C 721.359375 442.316406 723.664062 446.335938 724.410156 447.601562 C 725.152344 448.792969 726.714844 451.691406 727.980469 453.925781 C 730.433594 458.390625 734.824219 466.128906 737.277344 470.296875 C 738.09375 471.710938 741.664062 477.886719 745.160156 484.0625 C 748.65625 490.164062 752.898438 497.53125 754.609375 500.433594 C 761.824219 512.636719 766.136719 520.003906 767.773438 523.128906 C 768.742188 524.992188 773.574219 533.324219 778.410156 541.734375 C 783.246094 550.144531 788.972656 560.1875 791.203125 564.058594 C 793.359375 567.929688 795.445312 571.648438 795.890625 572.242188 C 796.261719 572.839844 797.972656 575.667969 799.609375 578.570312 C 801.320312 581.398438 803.996094 585.9375 805.632812 588.613281 C 807.195312 591.292969 808.832031 594.195312 809.277344 595.089844 C 809.652344 595.980469 810.765625 597.992188 811.734375 599.554688 C 812.699219 601.117188 814.335938 603.871094 815.378906 605.730469 C 818.128906 610.640625 828.320312 628.351562 831.964844 634.378906 C 833.675781 637.207031 838.214844 645.019531 842.007812 651.71875 C 845.800781 658.339844 849.222656 663.996094 849.59375 664.21875 C 850.5625 664.816406 852.050781 663.402344 853.460938 660.574219 C 854.132812 659.234375 855.695312 656.480469 856.882812 654.472656 C 858.074219 652.386719 860.453125 648.222656 862.015625 645.09375 C 863.652344 641.96875 866.925781 636.089844 869.230469 632.074219 C 871.535156 627.980469 874.289062 623.21875 875.332031 621.355469 C 876.371094 619.496094 877.414062 617.636719 877.710938 617.265625 C 879.050781 615.480469 892.585938 591.589844 892.585938 591.070312 C 892.585938 590.476562 884.480469 575.890625 879.570312 567.777344 C 878.230469 565.546875 876.222656 561.976562 875.105469 559.964844 C 873.992188 557.882812 870.941406 552.746094 868.414062 548.429688 C 861.050781 536.078125 845.132812 508.546875 839.328125 498.203125 C 838.214844 496.117188 835.386719 491.28125 833.082031 487.410156 C 827.28125 477.738281 810.46875 448.640625 803.476562 436.066406 C 802.4375 434.207031 800.875 431.527344 799.980469 430.113281 C 798.195312 427.210938 787.78125 409.277344 784.882812 404.066406 C 783.839844 402.207031 781.609375 398.339844 779.898438 395.511719 C 778.1875 392.609375 774.320312 385.910156 771.34375 380.628906 C 768.367188 375.269531 764.203125 367.902344 762.046875 364.257812 C 759.964844 360.535156 754.234375 350.714844 749.402344 342.304688 C 744.566406 333.894531 737.351562 321.542969 733.261719 314.847656 C 729.242188 308.148438 725.972656 301.972656 725.972656 301.226562 C 725.972656 299.144531 727.832031 298.847656 730.953125 300.484375 C 732.515625 301.300781 734.449219 302.195312 735.269531 302.34375 C 736.683594 302.714844 740.328125 303.980469 753.492188 308.816406 C 756.988281 310.082031 765.839844 313.132812 773.203125 315.589844 C 780.566406 318.046875 787.261719 320.351562 788.082031 320.648438 C 792.171875 322.4375 797.824219 324.445312 805.558594 326.976562 C 810.246094 328.539062 814.785156 330.027344 815.601562 330.398438 C 816.417969 330.695312 820.4375 332.183594 824.527344 333.746094 C 835.015625 337.542969 835.460938 337.839844 837.765625 341.933594 C 838.957031 344.015625 842.898438 350.863281 846.617188 357.1875 C 858.890625 378.320312 871.3125 399.976562 875.480469 407.417969 C 876.890625 409.871094 878.527344 412.699219 879.273438 413.742188 C 880.761719 415.972656 888.125 428.699219 888.125 429.144531 C 888.125 429.292969 889.015625 430.78125 890.132812 432.570312 C 891.175781 434.28125 895.265625 441.199219 899.132812 447.972656 C 914.382812 474.464844 933.050781 506.460938 935.429688 510.109375 C 936.101562 511.148438 936.84375 511.96875 937.140625 511.96875 C 937.664062 511.96875 947.777344 494.703125 964.738281 465.085938 C 968.160156 459.132812 972.921875 450.875 975.375 446.707031 L 979.761719 439.042969 L 976.042969 432.941406 C 974.035156 429.519531 968.457031 419.695312 963.621094 411.136719 C 958.789062 402.503906 952.539062 391.640625 949.863281 386.953125 C 942.273438 374.078125 934.242188 359.941406 929.40625 351.234375 C 927.027344 346.917969 922.117188 338.359375 918.621094 332.257812 C 915.050781 326.082031 908.953125 315.367188 905.007812 308.445312 C 901.140625 301.453125 897.347656 294.753906 896.605469 293.414062 C 890.875 283.59375 888.125 278.679688 888.125 278.234375 C 888.125 276.746094 879.496094 273.097656 867.296875 269.527344 C 864.84375 268.785156 847.734375 262.757812 840.519531 260.078125 C 838.660156 259.40625 834.195312 257.917969 830.476562 256.726562 C 826.832031 255.539062 818.949219 252.859375 813 250.773438 C 807.046875 248.691406 797.378906 245.34375 791.425781 243.332031 C 785.476562 241.398438 776.773438 238.347656 772.089844 236.636719 C 767.402344 234.925781 761.003906 232.765625 757.957031 231.800781 C 749.847656 229.34375 745.160156 227.707031 743.449219 226.960938 C 742.632812 226.589844 737.277344 224.730469 731.550781 222.871094 C 725.820312 221.007812 720.464844 219.148438 719.648438 218.777344 C 717.714844 217.957031 708.714844 214.757812 700.308594 212.003906 C 696.664062 210.742188 692.945312 209.476562 692.128906 209.179688 C 691.308594 208.804688 686.996094 207.316406 682.457031 205.902344 C 674.351562 203.300781 662.226562 199.132812 659.398438 198.015625 C 658.582031 197.644531 654.042969 196.15625 649.355469 194.59375 C 644.671875 193.03125 639.464844 191.167969 637.902344 190.425781 C 636.265625 189.605469 634.480469 189.011719 633.960938 189.011719 C 633.4375 189.011719 632.398438 188.714844 631.652344 188.34375 C 630.984375 187.96875 624.363281 185.738281 617 183.355469 C 609.636719 180.976562 603.316406 178.816406 602.941406 178.445312 C 602.496094 178.148438 601.453125 177.847656 600.636719 177.847656 C 599.746094 177.847656 598.851562 177.625 598.628906 177.402344 C 598.109375 176.957031 566.644531 166.019531 564.039062 165.421875 C 563.074219 165.199219 562.328125 165.273438 562.328125 165.496094 Z M 562.328125 165.496094 "/>
</g>
</svg>
