<?xml version="1.0" standalone="no"?>
<!DOCTYPE svg PUBLIC "-//W3C//DTD SVG 20010904//EN"
 "http://www.w3.org/TR/2001/REC-SVG-20010904/DTD/svg10.dtd">
<svg version="1.0" xmlns="http://www.w3.org/2000/svg"
 width="2752.000000pt" height="1536.000000pt" viewBox="0 0 2752.000000 1536.000000"
 preserveAspectRatio="xMidYMid meet">

<g transform="translate(0.000000,1536.000000) scale(0.100000,-0.100000)"
fill="#000000" stroke="none">
<path d="M19910 13131 c-30 -10 -161 -56 -290 -101 -129 -45 -318 -111 -420
-145 -102 -35 -243 -84 -315 -110 -71 -26 -157 -56 -190 -67 -159 -54 -159
-54 -196 -118 -19 -33 -64 -111 -100 -173 -36 -61 -130 -224 -209 -362 -78
-137 -158 -275 -175 -305 -18 -30 -106 -183 -196 -340 -89 -157 -190 -332
-224 -390 -34 -58 -78 -134 -97 -170 -20 -36 -75 -132 -124 -215 -85 -145
-272 -472 -359 -625 -23 -41 -77 -136 -120 -210 -43 -74 -93 -162 -112 -195
-19 -33 -38 -63 -41 -67 -4 -4 -273 -8 -597 -8 -481 -1 -590 1 -592 12 -2 7
17 45 42 83 61 96 132 217 173 295 19 36 61 108 92 160 31 52 128 221 215 375
87 154 202 354 255 445 53 91 142 244 197 340 153 268 309 537 420 725 72 121
97 171 87 173 -15 4 -285 -83 -509 -163 -66 -24 -149 -53 -185 -64 -36 -12
-74 -26 -85 -31 -22 -11 -414 -146 -540 -187 -44 -13 -93 -31 -110 -38 -16 -7
-82 -29 -145 -50 -63 -21 -180 -61 -260 -90 -80 -29 -197 -69 -260 -90 -63
-20 -128 -43 -145 -50 -16 -7 -127 -45 -245 -84 -178 -58 -472 -156 -529 -177
-24 -8 -4 -16 81 -31 114 -20 201 -36 348 -66 69 -14 168 -33 220 -42 52 -10
161 -30 241 -46 81 -16 163 -29 182 -29 41 0 67 -8 67 -21 0 -6 -38 -76 -84
-157 -46 -81 -142 -250 -213 -377 -137 -242 -390 -680 -563 -975 -56 -96 -130
-224 -164 -285 -35 -60 -131 -229 -216 -375 -84 -146 -231 -402 -328 -570 -96
-168 -251 -438 -344 -600 -94 -162 -181 -315 -195 -340 -56 -100 -354 -616
-398 -690 -18 -30 -67 -113 -107 -185 -41 -71 -119 -206 -173 -300 -54 -93
-121 -210 -150 -260 -28 -49 -87 -150 -129 -223 -48 -81 -76 -139 -72 -148 4
-9 45 -84 93 -168 47 -83 107 -189 133 -236 26 -47 94 -166 151 -265 58 -99
158 -274 223 -390 66 -115 130 -227 143 -248 13 -21 55 -93 92 -160 38 -67
117 -205 176 -307 59 -102 132 -230 163 -285 30 -55 105 -185 165 -290 60
-104 127 -219 147 -255 20 -36 75 -130 120 -210 116 -203 121 -210 130 -210 5
0 59 89 121 197 62 109 124 216 138 238 14 22 37 63 52 90 29 54 94 168 208
365 126 216 299 516 344 597 24 43 104 182 177 308 73 127 149 259 170 295 45
79 166 290 268 465 153 264 336 582 372 645 20 36 110 191 200 345 89 154 204
354 255 445 51 91 125 221 165 290 186 319 258 443 315 545 35 61 80 140 102
175 22 36 88 151 147 255 60 105 130 226 156 270 47 79 338 584 449 780 31 55
110 192 175 305 65 113 146 252 179 310 33 58 91 157 127 220 37 63 103 178
147 255 44 77 118 205 165 285 46 80 100 172 118 205 18 33 81 141 138 240
107 182 263 453 310 535 14 25 50 88 80 140 30 52 120 210 199 350 80 140 155
271 167 290 13 19 48 80 78 135 30 55 121 215 203 355 178 307 359 620 390
675 13 22 39 67 59 99 31 52 43 77 34 75 -2 0 -28 -8 -58 -18z m-3786 -4607
c9 -3 16 -11 16 -16 0 -11 -74 -144 -146 -263 -23 -38 -118 -203 -211 -365
-93 -162 -198 -344 -233 -405 -34 -60 -83 -146 -108 -190 -25 -44 -64 -111
-87 -150 -44 -72 -278 -477 -348 -600 -95 -167 -115 -203 -144 -250 -17 -27
-58 -97 -90 -155 -74 -129 -341 -593 -413 -715 -29 -49 -65 -112 -80 -140 -15
-27 -41 -72 -57 -100 -17 -27 -68 -115 -113 -195 -46 -80 -118 -203 -160 -275
-42 -71 -101 -174 -130 -227 -30 -54 -56 -98 -59 -98 -3 0 -24 33 -45 73 -22
39 -66 117 -99 172 -33 55 -79 134 -102 175 -46 82 -190 330 -279 480 -31 52
-56 104 -56 116 0 11 17 49 39 85 39 66 139 241 301 529 51 91 123 217 160
280 88 149 265 456 398 690 58 102 171 300 252 440 248 429 493 860 558 980
19 36 44 77 54 92 l19 28 567 3 c312 1 570 3 574 5 3 1 13 -1 22 -4z"/>
<path d="M7560 13136 c0 -11 15 -39 105 -191 74 -126 152 -262 255 -445 77
-136 95 -167 133 -230 22 -36 59 -99 82 -140 23 -41 74 -131 113 -199 40 -69
72 -126 72 -128 0 -2 11 -21 24 -42 13 -21 53 -89 88 -152 36 -63 91 -159 123
-214 32 -55 68 -118 80 -140 60 -106 108 -190 246 -423 18 -30 154 -265 190
-327 12 -22 51 -88 86 -148 35 -59 63 -109 63 -112 0 -3 22 -40 48 -83 27 -42
55 -90 64 -107 8 -16 31 -57 50 -90 194 -330 193 -329 289 -500 27 -49 58
-103 68 -120 10 -16 31 -55 48 -85 33 -60 92 -164 125 -220 11 -19 59 -102
106 -185 47 -82 104 -181 127 -220 97 -164 155 -263 177 -305 13 -25 78 -137
143 -250 65 -113 142 -248 172 -300 29 -52 57 -102 63 -110 5 -8 28 -46 50
-85 23 -38 59 -99 81 -135 21 -36 43 -75 49 -87 5 -12 20 -39 33 -60 13 -21
35 -58 49 -83 37 -66 174 -304 223 -385 23 -38 84 -143 135 -233 51 -89 97
-165 102 -168 13 -8 33 11 52 49 9 18 30 55 46 82 16 28 48 84 69 126 22 42
66 121 97 175 31 55 68 119 82 144 14 25 28 50 32 55 18 24 200 345 200 352 0
8 -109 204 -175 313 -18 30 -45 78 -60 105 -15 28 -56 97 -90 155 -99 166
-313 536 -391 675 -15 28 -53 93 -84 145 -78 130 -304 521 -398 690 -14 25
-35 61 -47 80 -24 39 -164 280 -203 350 -14 25 -44 77 -67 115 -23 39 -75 129
-115 200 -40 72 -96 171 -125 220 -28 50 -105 182 -170 295 -65 113 -162 279
-217 369 -54 90 -98 173 -98 183 0 28 25 32 67 10 21 -11 47 -23 58 -25 19 -5
68 -22 245 -87 47 -17 166 -58 265 -91 99 -33 189 -64 200 -68 55 -24 131 -51
235 -85 63 -21 124 -41 135 -46 11 -4 65 -24 120 -45 141 -51 147 -55 178
-110 16 -28 69 -120 119 -205 165 -284 332 -575 388 -675 19 -33 41 -71 51
-85 20 -30 119 -201 119 -207 0 -2 12 -22 27 -46 14 -23 69 -116 121 -207 205
-356 456 -786 488 -835 9 -14 19 -25 23 -25 7 0 143 232 371 630 46 80 110
191 143 247 l59 103 -50 82 c-27 46 -102 178 -167 293 -65 116 -149 262 -185
325 -102 173 -210 363 -275 480 -32 58 -98 173 -145 255 -48 83 -130 227 -183
320 -52 94 -103 184 -113 202 -77 132 -114 198 -114 204 0 20 -116 69 -280
117 -33 10 -263 91 -360 127 -25 9 -85 29 -135 45 -49 16 -155 52 -235 80 -80
28 -210 73 -290 100 -80 26 -197 67 -260 90 -63 23 -149 52 -190 65 -109 33
-172 55 -195 65 -11 5 -83 30 -160 55 -77 25 -149 50 -160 55 -26 11 -147 54
-260 91 -49 17 -99 34 -110 38 -11 5 -69 25 -130 44 -109 35 -272 91 -310 106
-11 5 -72 25 -135 46 -63 21 -133 46 -154 56 -22 11 -46 19 -53 19 -7 0 -21 4
-31 9 -9 5 -98 35 -197 67 -99 32 -184 61 -189 66 -6 4 -20 8 -31 8 -12 0 -24
3 -27 6 -7 6 -430 153 -465 161 -13 3 -23 2 -23 -1z"/>
</g>
</svg>
